<?xml version="1.0" encoding="UTF-8" standalone="no"?>
<!-- Generator: Adobe Illustrator 23.0.6, SVG Export Plug-In . SVG Version: 6.00 Build 0)  -->

<svg
   xmlns:dc="http://purl.org/dc/elements/1.1/"
   xmlns:cc="http://creativecommons.org/ns#"
   xmlns:rdf="http://www.w3.org/1999/02/22-rdf-syntax-ns#"
   xmlns:svg="http://www.w3.org/2000/svg"
   xmlns="http://www.w3.org/2000/svg"
   xmlns:sodipodi="http://sodipodi.sourceforge.net/DTD/sodipodi-0.dtd"
   xmlns:inkscape="http://www.inkscape.org/namespaces/inkscape"
   version="1.1"
   id="Layer_1"
   x="0px"
   y="0px"
   viewBox="0 0 130 47"
   style="enable-background:new 0 0 130 47;"
   xml:space="preserve"
   sodipodi:docname="axis_logo.svg"
   inkscape:version="0.92.5 (2060ec1f9f, 2020-04-08)"><metadata
   id="metadata55"><rdf:RDF><cc:Work
       rdf:about=""><dc:format>image/svg+xml</dc:format><dc:type
         rdf:resource="http://purl.org/dc/dcmitype/StillImage" /><dc:title></dc:title></cc:Work></rdf:RDF></metadata><defs
   id="defs53" /><sodipodi:namedview
   pagecolor="#ffffff"
   bordercolor="#666666"
   borderopacity="1"
   objecttolerance="10"
   gridtolerance="10"
   guidetolerance="10"
   inkscape:pageopacity="0"
   inkscape:pageshadow="2"
   inkscape:window-width="1920"
   inkscape:window-height="970"
   id="namedview51"
   showgrid="false"
   inkscape:zoom="2.1461538"
   inkscape:cx="-172.40143"
   inkscape:cy="23.5"
   inkscape:window-x="0"
   inkscape:window-y="20"
   inkscape:window-maximized="1"
   inkscape:current-layer="Layer_1" />
<style
   type="text/css"
   id="style2">
	.st0{fill:#FFCC33;}
	.st1{fill:#FF0033;}
</style>
<path
   d="M54.3,7.9h6.4c0.1,0,0.1,0.1,0.1,0.1v27.8c0,0.1-0.1,0.1-0.1,0.1h-6.4c-0.1,0-0.1-0.1-0.1-0.1V8.1C54.3,8,54.3,7.9,54.3,7.9  z"
   id="path4"
   style="fill:#ffffff" />
<path
   d="M52.3,7.9c0.1,0,0.1,0.1,0.1,0.1l-8.5,13.7c-0.1,0.1-0.1,0.3,0,0.4l8.5,13.6c0.1,0.1,0,0.1,0,0.1h-7.9  c-0.1,0-0.1-0.1-0.2-0.1l-5.1-8.4c-0.1-0.1-0.1-0.1-0.1,0l-4.8,8.4c-0.1,0.1-0.1,0.1-0.2,0.1h-7.5c-0.1,0-0.1,0-0.1-0.1l8.8-14.3  c0.1-0.1,0.1-0.3,0-0.5L27.5,8.1c0-0.1,0-0.1,0.1-0.1h7.7c0.1,0,0.1,0.1,0.1,0.1l4.6,7.8c0.1,0.1,0.1,0.1,0.2,0l4.7-7.8  C45,8,45,7.9,45.1,7.9H52.3z"
   id="path6"
   style="fill:#ffffff" />
<polygon
   class="st0"
   points="92.8,22.2 107,0 130,35.9 114.3,35.9 105.6,22.2 "
   id="polygon8" />
<path
   d="M24,7.9h-6c-0.1,0-0.1,0.1-0.2,0.1L0,35.8v0.1h7.3c0.1,0,0.1,0,0.1-0.1L9.8,32C9.9,32,9.9,32,9.9,32h7.6  c0.1,0,0.1,0.1,0.1,0.1v3.7c0,0.1,0,0.1,0.1,0.1H24c0.1,0,0.1-0.1,0.1-0.1V8.1C24.1,8,24.1,7.9,24,7.9z M17.7,26.5  C17.7,26.5,17.7,26.5,17.7,26.5L13,26.5c0,0-0.1,0,0-0.1l5-8c0-0.1,0.1,0,0.1,0L17.7,26.5z"
   id="path10"
   style="fill:#ffffff" />
<path
   d="M64.6,35.9c-0.1,0,8.4,0,8.4,0c1,0,2.1-0.2,3.2-0.5c3.9-1.2,5.9-5.1,5.9-8.4c0-5.3-4.1-7.1-9-9.2c-0.8-0.4-1.9-0.8-1.9-2  c0-1.2,1.1-1.8,2.3-1.8h6.6c0.1,0,0.1-0.1,0.1-0.1v-6c0-0.1-0.1-0.1-0.1-0.1h-7c-5.8,0-9.2,3.4-9.2,8.3c0,4.2,2.7,6.2,6.6,7.8  c2.7,1.1,4.5,1.6,4.5,3.8c0,1.2-0.7,2.3-2.1,2.3c0,0-8.3,0-8.4,0c-0.1,0-0.1,0.1-0.1,0.1c0-0.1,0,5.8,0,5.9  C64.5,35.9,64.7,35.9,64.6,35.9z"
   id="path12"
   style="fill:#ffffff" />
<path
   d="M85.7,7.8c-1.3,0-2.3,1-2.3,2.3s1,2.3,2.3,2.3c1.3,0,2.3-1,2.3-2.3S87,7.8,85.7,7.8z M85.7,12.2c-1.2,0-2.1-1-2.1-2.1  c0-1.2,1-2.1,2.1-2.1c1.2,0,2.1,1,2.1,2.1C87.8,11.2,86.9,12.2,85.7,12.2z"
   id="path14"
   style="fill:#ffffff" />
<path
   d="M86.8,11.4l-0.5-1.2c0.3-0.1,0.5-0.4,0.5-0.7c0-0.3-0.1-0.5-0.3-0.6c-0.2-0.1-0.4-0.2-0.7-0.2h-1v2.7h0.3v-1.2H86l0.5,1.2  H86.8z M85.2,10V9h0.7c0.1,0,0.3,0,0.4,0.1c0.1,0.1,0.2,0.2,0.2,0.4c0,0.1-0.1,0.3-0.1,0.3c-0.1,0.1-0.3,0.1-0.5,0.1L85.2,10  L85.2,10z"
   id="path16"
   style="fill:#ffffff" />
<path
   d="M5.6,46.3c-0.8,0.4-1.4,0.5-2.1,0.5c-2.1,0-3.2-1.4-3.2-2.8c0-1.4,1.2-2.8,3.4-2.8c0.8,0,1.5,0.1,2,0.5v1.2  c-0.6-0.3-1.2-0.6-1.9-0.6c-1.2,0-2,0.7-2,1.6c0,1,0.8,1.7,2,1.7c0.7,0,1.2-0.2,2-0.6L5.6,46.3L5.6,46.3z"
   id="path18"
   style="stroke:#ffffff;fill:#ffffff" />
<path
   d="M13.6,46.8c-2.1,0-3.2-1.4-3.2-2.8c0-1.3,1.1-2.8,3.2-2.8s3.2,1.5,3.2,2.8C16.8,45.4,15.7,46.8,13.6,46.8z M13.6,42.4  c-1,0-1.8,0.7-1.8,1.6c0,1,0.7,1.6,1.8,1.6s1.8-0.6,1.8-1.6C15.4,43,14.7,42.4,13.6,42.4z"
   id="path20"
   style="stroke:#ffffff;fill:#ffffff" />
<path
   d="M26.5,41.3h1.2v5.5h-1.4v-3.4l-1.5,1.7h-0.2l-1.5-1.7v3.4h-1.4v-5.5H23l1.8,2L26.5,41.3z"
   id="path22"
   style="stroke:#ffffff;fill:#ffffff" />
<path
   d="M38,41.3h1.2v5.5h-1.4v-3.4l-1.5,1.7h-0.2l-1.5-1.7v3.4h-1.5v-5.5h1.2l1.8,2L38,41.3z"
   id="path24"
   style="stroke:#ffffff;fill:#ffffff" />
<path
   d="M49.8,41.3v3.1c0,1.8-1.2,2.4-2.8,2.4c-1.6,0-2.8-0.7-2.8-2.4v-3.1h1.4v3.1c0,0.8,0.6,1.2,1.4,1.2c0.7,0,1.4-0.4,1.4-1.4  v-3.1h1.4V41.3z"
   id="path26"
   style="stroke:#ffffff;fill:#ffffff" />
<path
   d="M60.6,46.7h-1.2l-3.1-3.5v3.5h-1.4v-5.5h1.3l3,3.3v-3.3h1.4C60.6,41.3,60.6,46.7,60.6,46.7z"
   id="path28"
   style="stroke:#ffffff;fill:#ffffff" />
<path
   d="M67.3,46.7h-1.4v-5.5h1.4V46.7z"
   id="path30"
   style="stroke:#ffffff;fill:#ffffff" />
<path
   d="M77.3,46.3c-0.8,0.4-1.4,0.5-2.2,0.5c-2.1,0-3.2-1.4-3.2-2.8c0-1.4,1.2-2.8,3.4-2.8c0.8,0,1.5,0.1,2,0.5v1.2  c-0.6-0.3-1.2-0.6-1.9-0.6c-1.2,0-2,0.7-2,1.6c0,1,0.8,1.7,2,1.7c0.7,0,1.2-0.2,2-0.6C77.3,45,77.3,46.3,77.3,46.3z"
   id="path32"
   style="stroke:#ffffff;fill:#ffffff" />
<path
   d="M87.3,46.7h-1.5l-0.5-1.1h-2.5l-0.4,1.1H81l2.3-5.5h1.6L87.3,46.7z M84,42.6l-0.8,2.1h1.7L84,42.6z"
   id="path34"
   style="stroke:#ffffff;fill:#ffffff" />
<path
   d="M95.5,42.3h-2v4.4h-1.4v-4.4h-2v-1h5.5L95.5,42.3L95.5,42.3z"
   id="path36"
   style="stroke:#ffffff;fill:#ffffff" />
<path
   d="M101.1,46.7h-1.4v-5.5h1.4V46.7z"
   id="path38"
   style="stroke:#ffffff;fill:#ffffff" />
<path
   d="M108.6,46.8c-2.1,0-3.2-1.4-3.2-2.8c0-1.3,1.1-2.8,3.2-2.8c2.1,0,3.2,1.5,3.2,2.8C111.7,45.4,110.6,46.8,108.6,46.8z   M108.6,42.4c-1,0-1.8,0.7-1.8,1.6c0,1,0.7,1.6,1.8,1.6c1,0,1.8-0.6,1.8-1.6C110.3,43,109.6,42.4,108.6,42.4z"
   id="path40"
   style="stroke:#ffffff;fill:#ffffff" />
<path
   d="M121.6,46.7h-1.2l-3.1-3.5v3.5h-1.4v-5.5h1.3l3,3.3v-3.3h1.4V46.7z"
   id="path42"
   style="stroke:#ffffff;fill:#ffffff" />
<path
   d="M129.7,42.7c-0.8-0.3-1.3-0.5-1.8-0.5c-0.5,0-0.8,0.2-0.8,0.5c0,0.8,2.9,0.6,2.9,2.5c0,1-0.9,1.6-2.1,1.6  c-1,0-1.4-0.3-2-0.5v-1.2c0.8,0.5,1.3,0.7,1.9,0.7c0.5,0,0.8-0.2,0.8-0.5c0-0.9-2.9-0.6-2.9-2.5c0-0.9,0.8-1.6,2.1-1.6  c0.6,0,1.2,0.1,1.9,0.4L129.7,42.7L129.7,42.7z"
   id="path44"
   style="stroke:#ffffff;fill:#ffffff" />
<polygon
   points="105.6,22.2 103.2,22.2 112.1,35.9 114.3,35.9 "
   id="polygon46" />
<polygon
   class="st1"
   points="103.2,22.2 112.1,35.9 84,35.9 92.8,22.2 "
   id="polygon48" />
</svg>