<svg xmlns="http://www.w3.org/2000/svg">

  <symbol id="arrow-right" fill="none" viewBox="0 0 24 24">
    <path
      d="M13.704 4.284a1 1 0 1 0-1.403 1.424L17.67 11H4a1 1 0 1 0 0 2h13.665L12.3 18.285a1 1 0 0 0 1.403 1.424l6.925-6.822a1.25 1.25 0 0 0 0-1.78l-6.925-6.823Z"
      fill="currentcolor" />
  </symbol>

  <symbol id="arrow-up" fill="none" viewBox="0 0 24 24">
    <path
      d="M4.284 10.296A1 1 0 0 0 5.709 11.7L11 6.33V20a1 1 0 1 0 2 0V6.336l5.285 5.364a1 1 0 0 0 1.425-1.404l-6.823-6.924a1.25 1.25 0 0 0-1.78 0l-6.823 6.924Z"
      fill="currentcolor" />
  </symbol>

  <symbol id="chevron-up" fill="none" viewBox="0 0 24 24">
    <path
      d="M4.293 15.707a1 1 0 0 0 1.414 0L12 9.414l6.293 6.293a1 1 0 0 0 1.414-1.414l-7-7a1 1 0 0 0-1.414 0l-7 7a1 1 0 0 0 0 1.414Z"
      fill="currentcolor" />
  </symbol>

  <symbol id="chevron-down" fill="none" viewBox="0 0 24 24">
    <path
      d="M4.293 8.293a1 1 0 0 1 1.414 0L12 14.586l6.293-6.293a1 1 0 1 1 1.414 1.414l-7 7a1 1 0 0 1-1.414 0l-7-7a1 1 0 0 1 0-1.414Z"
      fill="currentcolor" />
  </symbol>

  <symbol id="chevron-left" fill="none" viewBox="0 0 24 24">
    <path
      d="M15.707 4.293a1 1 0 0 1 0 1.414L9.414 12l6.293 6.293a1 1 0 0 1-1.414 1.414l-7-7a1 1 0 0 1 0-1.414l7-7a1 1 0 0 1 1.414 0Z"
      fill="currentcolor" />
  </symbol>

  <symbol id="chevron-right" fill="none" viewBox="0 0 24 24">
    <path
      d="M8.293 4.293a1 1 0 0 0 0 1.414L14.586 12l-6.293 6.293a1 1 0 1 0 1.414 1.414l7-7a1 1 0 0 0 0-1.414l-7-7a1 1 0 0 0-1.414 0Z"
      fill="currentcolor" />
  </symbol>

  <symbol id="checkbox-unchecked" fill="none" viewBox="0 0 24 24">
    <path
      d="M6 3h12a3 3 0 0 1 3 3v12a3 3 0 0 1-3 3H6a3 3 0 0 1-3-3V6a3 3 0 0 1 3-3Zm0 2a1 1 0 0 0-1 1v12a1 1 0 0 0 1 1h12a1 1 0 0 0 1-1V6a1 1 0 0 0-1-1H6Z"
      fill="currentcolor" />
  </symbol>

  <symbol id="checkbox-checked" fill="none" viewBox="0 0 24 24">
    <path
      d="M18 3a3 3 0 0 1 3 3v12a3 3 0 0 1-3 3H6a3 3 0 0 1-3-3V6a3 3 0 0 1 3-3h12Zm-1.53 4.97L10 14.44l-2.47-2.47a.75.75 0 0 0-1.06 1.06l3 3a.75.75 0 0 0 1.06 0l7-7a.75.75 0 0 0-1.06-1.06Z"
      fill="currentcolor" />
  </symbol>

  <symbol id="checkmark" fill="none" viewBox="0 0 24 24">
    <path
      d="m8.5 16.586-3.793-3.793a1 1 0 0 0-1.414 1.414l4.5 4.5a1 1 0 0 0 1.414 0l11-11a1 1 0 0 0-1.414-1.414L8.5 16.586Z"
      fill="currentcolor" />
  </symbol>

  <symbol id="star-outlined" fill="none" viewBox="0 0 24 24">
    <path
      d="M10.788 3.103c.495-1.004 1.926-1.004 2.421 0l2.358 4.777 5.273.766c1.107.161 1.549 1.522.748 2.303l-3.816 3.72.901 5.25c.19 1.103-.968 1.944-1.959 1.424l-4.716-2.48-4.715 2.48c-.99.52-2.148-.32-1.96-1.424l.901-5.25-3.815-3.72c-.801-.78-.359-2.142.748-2.303L8.43 7.88l2.358-4.777Zm1.21.936L9.74 8.615a1.35 1.35 0 0 1-1.016.738l-5.05.734 3.654 3.562c.318.31.463.757.388 1.195l-.862 5.03 4.516-2.375a1.35 1.35 0 0 1 1.257 0l4.516 2.374-.862-5.029a1.35 1.35 0 0 1 .388-1.195l3.654-3.562-5.05-.734a1.35 1.35 0 0 1-1.016-.738l-2.259-4.576Z"
      fill="currentcolor" />
  </symbol>

  <symbol id="star-half" fill="none" viewBox="0 0 24 24">
    <path
      d="M12 2.35c-.482 0-.964.25-1.212.753L8.43 7.88l-5.273.766c-1.107.161-1.55 1.522-.748 2.303l3.815 3.72-.9 5.25c-.15.873.544 1.582 1.331 1.582.208 0 .422-.05.63-.159l4.714-2.478 4.715 2.479c.99.52 2.148-.32 1.96-1.424l-.902-5.25 3.816-3.72c.8-.78.359-2.142-.748-2.303l-5.273-.766-2.358-4.777a1.335 1.335 0 0 0-1.21-.753Zm0 14.994V4.042l2.257 4.573a1.35 1.35 0 0 0 1.016.738l5.05.734-3.654 3.562a1.35 1.35 0 0 0-.388 1.195l.862 5.03-4.516-2.375a1.35 1.35 0 0 0-.627-.155Z"
      fill="currentcolor" />
  </symbol>

  <symbol id="star-filled" fill="none" viewBox="0 0 24 24">
    <path
      d="M10.788 3.103c.495-1.004 1.926-1.004 2.421 0l2.358 4.777 5.273.766c1.107.161 1.549 1.522.748 2.303l-3.816 3.72.901 5.25c.19 1.103-.968 1.944-1.959 1.424l-4.716-2.48-4.715 2.48c-.99.52-2.148-.32-1.96-1.424l.901-5.25-3.815-3.72c-.801-.78-.359-2.142.748-2.303L8.43 7.88l2.358-4.777Z"
      fill="currentcolor" />
  </symbol>

  <symbol id="radio-unchecked" fill="none" viewBox="0 0 24 24">
    <path
      d="M12 22.002c5.524 0 10.002-4.478 10.002-10.001 0-5.524-4.478-10.002-10.002-10.002-5.524 0-10.002 4.478-10.002 10.002 0 5.523 4.478 10.001 10.002 10.001Zm0-1.5A8.501 8.501 0 1 1 12 3.5a8.501 8.501 0 0 1 0 17.003Z"
      fill="currentcolor" />
  </symbol>

  <symbol id="radio-checked" fill="none" viewBox="0 0 24 24">
    <path
      d="M12 1.999c5.524 0 10.002 4.478 10.002 10.002 0 5.523-4.478 10.001-10.002 10.001-5.524 0-10.002-4.478-10.002-10.001C1.998 6.477 6.476 1.999 12 1.999Zm0 1.5a8.502 8.502 0 1 0 0 17.003A8.502 8.502 0 0 0 12 3.5Zm-.003 2.5a5.998 5.998 0 1 1 0 11.996 5.998 5.998 0 0 1 0-11.996Z"
      fill="currentcolor" />
  </symbol>

  <symbol id="question-circle" fill="none" viewBox="0 0 24 24">
    <path
      d="M12 2c5.523 0 10 4.478 10 10s-4.477 10-10 10S2 17.522 2 12 6.477 2 12 2Zm0 1.667c-4.595 0-8.333 3.738-8.333 8.333 0 4.595 3.738 8.333 8.333 8.333 4.595 0 8.333-3.738 8.333-8.333 0-4.595-3.738-8.333-8.333-8.333ZM12 15.5a1 1 0 1 1 0 2 1 1 0 0 1 0-2Zm0-8.75a2.75 2.75 0 0 1 2.75 2.75c0 1.01-.297 1.574-1.051 2.359l-.169.171c-.622.622-.78.886-.78 1.47a.75.75 0 0 1-1.5 0c0-1.01.297-1.574 1.051-2.359l.169-.171c.622-.622.78-.886.78-1.47a1.25 1.25 0 0 0-2.493-.128l-.007.128a.75.75 0 0 1-1.5 0A2.75 2.75 0 0 1 12 6.75Z"
      fill="currentcolor" />
  </symbol>

  <symbol id="error-circle" fill="none" viewBox="0 0 24 24">
    <path
      d="M12 2c5.523 0 10 4.478 10 10s-4.477 10-10 10S2 17.522 2 12 6.477 2 12 2Zm0 1.667c-4.595 0-8.333 3.738-8.333 8.333 0 4.595 3.738 8.333 8.333 8.333 4.595 0 8.333-3.738 8.333-8.333 0-4.595-3.738-8.333-8.333-8.333Zm-.001 10.835a.999.999 0 1 1 0 1.998.999.999 0 0 1 0-1.998ZM11.994 7a.75.75 0 0 1 .744.648l.007.101.004 4.502a.75.75 0 0 1-1.493.103l-.007-.102-.004-4.501a.75.75 0 0 1 .75-.751Z"
      fill="currentcolor" />
  </symbol>

  <symbol id="checkmark-circle" fill="none" viewBox="0 0 24 24">
    <path
      d="M12 2c5.523 0 10 4.477 10 10s-4.477 10-10 10S2 17.523 2 12 6.477 2 12 2Zm0 1.5a8.5 8.5 0 1 0 0 17 8.5 8.5 0 0 0 0-17Zm-1.25 9.94 4.47-4.47a.75.75 0 0 1 1.133.976l-.073.084-5 5a.75.75 0 0 1-.976.073l-.084-.073-2.5-2.5a.75.75 0 0 1 .976-1.133l.084.073 1.97 1.97 4.47-4.47-4.47 4.47Z"
      fill="currentcolor" />
  </symbol>

  <symbol id="chat" fill="none" viewBox="0 0 24 24">
    <path
      d="M12 2c5.523 0 10 4.477 10 10s-4.477 10-10 10a9.96 9.96 0 0 1-4.587-1.112l-3.826 1.067a1.25 1.25 0 0 1-1.54-1.54l1.068-3.823A9.96 9.96 0 0 1 2 12C2 6.477 6.477 2 12 2Zm0 1.5A8.5 8.5 0 0 0 3.5 12c0 1.47.373 2.883 1.073 4.137l.15.27-1.112 3.984 3.987-1.112.27.15A8.5 8.5 0 1 0 12 3.5ZM8.75 13h4.498a.75.75 0 0 1 .102 1.493l-.102.007H8.75a.75.75 0 0 1-.102-1.493L8.75 13h4.498H8.75Zm0-3.5h6.505a.75.75 0 0 1 .101 1.493l-.101.007H8.75a.75.75 0 0 1-.102-1.493L8.75 9.5h6.505H8.75Z"
      fill="currentcolor" />
  </symbol>

  <symbol id="copy" fill="none" viewBox="0 0 24 24">
    <path
      d="M5.503 4.627 5.5 6.75v10.504a3.25 3.25 0 0 0 3.25 3.25h8.616a2.251 2.251 0 0 1-2.122 1.5H8.75A4.75 4.75 0 0 1 4 17.254V6.75c0-.98.627-1.815 1.503-2.123ZM17.75 2A2.25 2.25 0 0 1 20 4.25v13a2.25 2.25 0 0 1-2.25 2.25h-9a2.25 2.25 0 0 1-2.25-2.25v-13A2.25 2.25 0 0 1 8.75 2h9Zm0 1.5h-9a.75.75 0 0 0-.75.75v13c0 .414.336.75.75.75h9a.75.75 0 0 0 .75-.75v-13a.75.75 0 0 0-.75-.75Z"
      fill="currentcolor" />
  </symbol>

  <symbol id="lock-closed" fill="none" viewBox="0 0 24 24">
    <path
      d="M12 2a4 4 0 0 1 4 4v2h1.75A2.25 2.25 0 0 1 20 10.25v9.5A2.25 2.25 0 0 1 17.75 22H6.25A2.25 2.25 0 0 1 4 19.75v-9.5A2.25 2.25 0 0 1 6.25 8H8V6a4 4 0 0 1 4-4Zm5.75 7.5H6.25a.75.75 0 0 0-.75.75v9.5c0 .414.336.75.75.75h11.5a.75.75 0 0 0 .75-.75v-9.5a.75.75 0 0 0-.75-.75Zm-5.75 4a1.5 1.5 0 1 1 0 3 1.5 1.5 0 0 1 0-3Zm0-10A2.5 2.5 0 0 0 9.5 6v2h5V6A2.5 2.5 0 0 0 12 3.5Z"
      fill="currentcolor" />
  </symbol>

  <symbol id="download" fill="none" viewBox="0 0 24 24">
    <path
      d="M18.25 20.5a.75.75 0 1 1 0 1.5l-13 .004a.75.75 0 1 1 0-1.5l13-.004ZM11.648 2.012l.102-.007a.75.75 0 0 1 .743.648l.007.102-.001 13.685 3.722-3.72a.75.75 0 0 1 .976-.073l.085.073a.75.75 0 0 1 .072.976l-.073.084-4.997 4.997a.75.75 0 0 1-.976.073l-.085-.073-5.003-4.996a.75.75 0 0 1 .976-1.134l.084.072 3.719 3.714L11 2.755a.75.75 0 0 1 .648-.743l.102-.007-.102.007Z"
      fill="currentcolor" />
  </symbol>

  <symbol id="eye-show" fill="none" viewBox="0 0 24 24">
    <path
      d="M12 9.005a4 4 0 1 1 0 8 4 4 0 0 1 0-8ZM12 5.5c4.613 0 8.596 3.15 9.701 7.564a.75.75 0 1 1-1.455.365 8.503 8.503 0 0 0-16.493.004.75.75 0 0 1-1.455-.363A10.003 10.003 0 0 1 12 5.5Z"
      fill="currentcolor" />
  </symbol>

  <symbol id="eye-hide" fill="none" viewBox="0 0 24 24">
    <path
      d="M2.22 2.22a.75.75 0 0 0-.073.976l.073.084 4.034 4.035a9.986 9.986 0 0 0-3.955 5.75.75.75 0 0 0 1.455.364 8.49 8.49 0 0 1 3.58-5.034l1.81 1.81A4 4 0 0 0 14.8 15.86l5.919 5.92a.75.75 0 0 0 1.133-.977l-.073-.084-6.113-6.114.001-.002-6.95-6.946.002-.002-1.133-1.13L3.28 2.22a.75.75 0 0 0-1.06 0ZM12 5.5c-1 0-1.97.148-2.889.425l1.237 1.236a8.503 8.503 0 0 1 9.899 6.272.75.75 0 0 0 1.455-.363A10.003 10.003 0 0 0 12 5.5Zm.195 3.51 3.801 3.8a4.003 4.003 0 0 0-3.801-3.8Z"
      fill="currentcolor" />
  </symbol>

  <symbol id="add" fill="none" viewBox="0 0 24 24">
    <path
      d="M11.883 3.007 12 3a1 1 0 0 1 .993.883L13 4v7h7a1 1 0 0 1 .993.883L21 12a1 1 0 0 1-.883.993L20 13h-7v7a1 1 0 0 1-.883.993L12 21a1 1 0 0 1-.993-.883L11 20v-7H4a1 1 0 0 1-.993-.883L3 12a1 1 0 0 1 .883-.993L4 11h7V4a1 1 0 0 1 .883-.993L12 3l-.117.007Z"
      fill="currentcolor" />
  </symbol>

  <symbol id="dismiss" fill="none" viewBox="0 0 24 24">
    <path
      d="m4.397 4.554.073-.084a.75.75 0 0 1 .976-.073l.084.073L12 10.939l6.47-6.47a.75.75 0 1 1 1.06 1.061L13.061 12l6.47 6.47a.75.75 0 0 1 .072.976l-.073.084a.75.75 0 0 1-.976.073l-.084-.073L12 13.061l-6.47 6.47a.75.75 0 0 1-1.06-1.061L10.939 12l-6.47-6.47a.75.75 0 0 1-.072-.976l.073-.084-.073.084Z"
      fill="currentcolor" />
  </symbol>

  <symbol id="window-new" fill="none" viewBox="0 0 24 24">
    <path
      d="M11.272 7.25a.75.75 0 0 1 .75-.75h4.728a.75.75 0 0 1 .75.75v4.729a.75.75 0 0 1-1.5 0V9.06l-5.22 5.22a.75.75 0 1 1-1.06-1.061L14.94 8h-2.918a.75.75 0 0 1-.75-.75Z"
      fill="currentcolor" />
    <path
      d="M6.157 5.25A3.251 3.251 0 0 1 9.25 3h8.5A3.25 3.25 0 0 1 21 6.25v8.588a3.251 3.251 0 0 1-2 3.001v.136c0 1.05-.53 1.845-1.309 2.344-.75.48-1.717.686-2.693.68h-.002l-4.077-.004H7c-1.157 0-2.164-.362-2.89-1.045-.727-.686-1.11-1.64-1.11-2.7V8.5c0-.865.216-1.683.734-2.296.534-.633 1.31-.954 2.222-.954h.2ZM6 6.75h-.044c-.544 0-.871.179-1.076.421-.22.262-.38.694-.38 1.329v8.75c0 .69.242 1.234.64 1.608.4.377 1.017.637 1.86.637h3.92L15 19.5h.004c.788.004 1.445-.166 1.878-.444.372-.238.582-.55.614-.968H9.25A3.25 3.25 0 0 1 6 14.838V6.75ZM9.25 4.5A1.75 1.75 0 0 0 7.5 6.25v8.588c0 .967.784 1.75 1.75 1.75h8.5a1.75 1.75 0 0 0 1.75-1.75V6.25a1.75 1.75 0 0 0-1.75-1.75h-8.5Z"
      fill="currentcolor" />
  </symbol>
</svg>